<?xml version="1.0" encoding="UTF-8"?>
<svg id="Layer_2" data-name="Layer 2" xmlns="http://www.w3.org/2000/svg" xmlns:xlink="http://www.w3.org/1999/xlink" viewBox="0 0 87.88 85.23">
  <defs>
    <style>
      .cls-1 {
        fill: #fff;
        stroke-width: 0px;
      }

      .cls-2 {
        fill: url(#linear-gradient);
        stroke: #fff;
        stroke-miterlimit: 10;
      }
    </style>
    <linearGradient id="linear-gradient" x1="18.2" y1="68.29" x2="78.23" y2="8.41" gradientUnits="userSpaceOnUse">
      <stop offset="0" stop-color="#25bec8"/>
      <stop offset="1" stop-color="#6c51a2"/>
    </linearGradient>
  </defs>
  <g id="Layer_1-2" data-name="Layer 1">
    <rect class="cls-2" x=".5" y=".5" width="86.88" height="84.23" rx="11.65" ry="11.65"/>
    <g>
      <path class="cls-1" d="M51.99,47.34c-2.51-6.07-6.3-10.54-7.14-11.52-.34-.39-4.2-4.84-6.06-9.01-.2-.48-.46-1.34-.85-2.43-.47-1.29-.82-3.13-.42-5.39.14-.8.55-2.98,2.24-4.79,1.4-1.52,4.38-3.32,4.57-3.52.1-.1.17-.18.18-.3,0-.27-.38-.48-.53-.55-.89-.47-4.01.54-4.7.76-.03,0-.06.02-.08.03l-2.4,1.15s-.04.02-.06.02c-.14.05-.35.12-.62.16-1.44.19-2.24-.86-4.16-1.27-.45-.1-.81-.12-1.31-.14-2.99-.14-4.9,1.43-4.9,1.43-2.19,1.8-2.42,4.97-2.56,7.04-.04.58-.01.46-.06,1.16-.26,3.6-1.31,6.28-1.54,6.86-.78,1.93-1.82,4.44-4.6,6.95-5.51,5.46-8.22,13.03-8.22,13.03-2.43,6.79-2.33,11.25-2.01,13.71.33,2.42.87,2.82,1.2,2.89.28.06,1.04.03,3.35-3.88.74-1.25,3.03-6.09,3.32-6.77.07-.27.27-.39.38-.36.09.03.14.17.14.32,0,.55,0,.98-.02,1.11-.02.13-.04.49-.07,1.2-.02.34-.02.52,0,1.9,0,.58.01,1.1.01,1.5.01.8.03,1.19.04,1.49.01.23.06.93.2,1.83.05.35.17,1.02.38,1.86.16.64.34,1.23.52,1.76.13.45.3.96.54,1.5.22.51.47.95.7,1.33.27.5.54,1.01.84,1.52.16.28.32.55.48.81.04.06.07.12.08.19.02.1.04.24,0,.4-.05.21-.17.35-.24.42-.02.02-.05.04-.08.06-.18.12-.37.27-.57.44-.16.14-.31.28-.43.42-.02.02-.03.04-.05.06-.15.21-.31.43-.47.67-.2.32-.38.64-.54.94-.19.35-.26.65-.33.89,0,.01,0,.02-.01.04-.02.09-.05.19-.07.3-.1.44.24.86.69.86h27.04c.4,0,.72-.33.71-.73,0-.24-.05-.51-.13-.8-.11-.44-.29-.78-.45-1.02-.01-.02-.03-.04-.04-.06-.19-.24-.41-.5-.68-.78-.2-.19-.39-.36-.59-.51-.14-.13-.3-.26-.47-.39-.3-.22-.43-.21-.52-.36-.03-.05-.06-.11-.08-.19-.05-.2.01-.4.14-.56.37-.47.84-1.12,1.32-1.93.31-.51,1.62-2.81,2.25-6.29.23-1.28.53-4.71.53-4.89,0,.01,0,.02-.01.03.04-.82.07-1.67.07-2.57,0-.8-.03-1.61-.05-2.41,0-.12.01-.38.14-.45.16-.07.42.2.56.36.05.05.08.12.11.18,1.14,2.72,2.17,4.93,2.98,6.56,1.58,3.21,2.24,4.21,2.83,4.12.26-.03.8-.32,1.24-2.87,1.17-6.73-1.39-12.91-1.64-13.54ZM30.51,13.28c1.01.02,1.77.97,1.64,1.91-.1.76-.75,1.39-1.51,1.45-.92.09-1.83-.65-1.85-1.64-.01-.95.8-1.74,1.73-1.72ZM41.85,56.7c-.43,2.82-1.96,12.73-8.35,15.07-2.76,1.01-5.41.22-5.72.13-3.27-1-4.95-3.71-5.92-5.25-.55-.91-1.84-3.15-2.63-8.49-.23-1.63-1.05-7.78.33-15.98.16-.92.82-4.68,2.5-9.28,0,0,1.19-3.25,3.81-7.04.31-.44,1-1.41,2.24-2.16.61-.37,1.42-.87,2.5-.86,1.32.02,2.28.78,2.95,1.32.96.76,1.49,1.56,1.72,1.91,2.41,3.72,3.81,8.23,3.81,8.23.63,1.99,1.12,3.59,1.64,6.38,1.1,5.74,1.98,10.46,1.12,16.05Z"/>
      <path class="cls-1" d="M68.33,8.79h8.25c2.62,0,4.11,3.01,2.52,5.09l-19,24.87c-.52.68-.55,1.61-.08,2.32l20.14,30.46c1.39,2.11-.12,4.92-2.64,4.92h-8.5c-1.08,0-2.09-.55-2.67-1.47l-11.23-17.63-.25-.82c-.05-2.04-.33-4.63-1.18-7.52-1.45-4.91-3.92-8.42-5.64-10.48-.06-.07-.1-.15-.13-.23-.07-.23-.14-.58-.09-1.02.04-.38.18-.76.4-1.09l17.49-26c.59-.88,1.57-1.4,2.63-1.4Z"/>
    </g>
  </g>
</svg>