<?xml version="1.0" encoding="UTF-8"?>
<svg id="Layer_2" data-name="Layer 2" xmlns="http://www.w3.org/2000/svg" xmlns:xlink="http://www.w3.org/1999/xlink" viewBox="0 0 301.11 85.23">
  <defs>
    <style>
      .cls-1 {
        fill: url(#linear-gradient);
      }

      .cls-1, .cls-2, .cls-3, .cls-4, .cls-5, .cls-6, .cls-7, .cls-8, .cls-9 {
        stroke-width: 0px;
      }

      .cls-2 {
        fill: url(#linear-gradient-6);
      }

      .cls-3 {
        fill: url(#linear-gradient-5);
      }

      .cls-10 {
        fill: url(#linear-gradient-9);
        stroke: #fff;
        stroke-miterlimit: 10;
      }

      .cls-4 {
        fill: url(#linear-gradient-2);
      }

      .cls-5 {
        fill: url(#linear-gradient-7);
      }

      .cls-6 {
        fill: url(#linear-gradient-3);
      }

      .cls-7 {
        fill: url(#linear-gradient-8);
      }

      .cls-8 {
        fill: #fff;
      }

      .cls-9 {
        fill: url(#linear-gradient-4);
      }
    </style>
    <linearGradient id="linear-gradient" x1="100.89" y1="67.51" x2="125.57" y2="35.72" gradientUnits="userSpaceOnUse">
      <stop offset="0" stop-color="#25bec8"/>
      <stop offset="1" stop-color="#6c51a2"/>
    </linearGradient>
    <linearGradient id="linear-gradient-2" x1="140.97" y1="54.23" x2="150.34" y2="46.12" xlink:href="#linear-gradient"/>
    <linearGradient id="linear-gradient-3" x1="137.12" y1="19.02" x2="149.97" y2="12.86" xlink:href="#linear-gradient"/>
    <linearGradient id="linear-gradient-4" x1="165.22" y1="53.26" x2="188.45" y2="27.37" xlink:href="#linear-gradient"/>
    <linearGradient id="linear-gradient-5" x1="199.74" y1="56.11" x2="207.6" y2="46.52" xlink:href="#linear-gradient"/>
    <linearGradient id="linear-gradient-6" x1="196.86" y1="19.83" x2="209.23" y2="12.76" xlink:href="#linear-gradient"/>
    <linearGradient id="linear-gradient-7" x1="222.03" y1="62.92" x2="255.09" y2="37.61" xlink:href="#linear-gradient"/>
    <linearGradient id="linear-gradient-8" x1="271.91" y1="53.65" x2="297.65" y2="23.16" xlink:href="#linear-gradient"/>
    <linearGradient id="linear-gradient-9" x1="18.2" y1="68.29" x2="78.23" y2="8.41" xlink:href="#linear-gradient"/>
  </defs>
  <g id="Layer_1-2" data-name="Layer 1">
    <path class="cls-1" d="M97.29,29.85l-2.23,1.12c-1.55.77-2.5,2.38-2.42,4.12l.17,3.86c.07,1.61,1.83,2.55,3.21,1.73,8.87-5.27,17.43-5.31,20.57-1.4.61.76,1.48,2.26,1.42,5.03v2.95c-4.24-.7-11.74-1.24-19.43,2.37-1.64.77-3.08,1.63-4.36,2.52-.55.53-4.78,4.8-4.16,11.27.58,6.04,4.95,9.35,5.63,9.86,1.22.8,6.06,3.78,12.68,2.94,6.64-.85,10.57-4.98,11.54-6.06l.07,3.81c.02.82.69,1.47,1.5,1.47h7.26c.83,0,1.5-.67,1.5-1.5v-31.72c-.13-4.6-1.69-7.37-2.76-8.82-5.13-6.98-17.45-8.82-30.19-3.55ZM118.02,62.44c-.13.28-2.55,5-7.7,5.46-3.71.33-6.35-1.78-6.89-2.23-1.67-3.03-1.2-5.01-1-5.66,1.24-3.93,7.61-6.66,15.59-4.99v7.42Z"/>
    <rect class="cls-4" x="136.72" y="28.74" width="12.4" height="47.63" rx="2.31" ry="2.31"/>
    <rect class="cls-6" x="135.79" y="9.86" width="14.25" height="12.77" rx="4.44" ry="4.44"/>
    <path class="cls-9" d="M187.37,65.77h-18.83V15.87c0-1.66-1.34-3-3-3h-6.95c-1.66,0-3,1.34-3,3v57.49c0,1.66,1.34,3,3,3h28.78c1.66,0,3-1.34,3-3v-4.59c0-1.66-1.34-3-3-3Z"/>
    <rect class="cls-3" x="196.03" y="29.25" width="12.4" height="47.63" rx="2.31" ry="2.31"/>
    <rect class="cls-2" x="195.11" y="10.38" width="14.25" height="12.77" rx="4.44" ry="4.44"/>
    <path class="cls-5" d="M248.51,30.55c-6.97-4.48-17.75-2.48-24.05,5.85v-5.14c0-1.1-.9-2-2-2h-6.36c-1.1,0-2,.9-2,2v43.63c0,1.1.9,2,2,2h8.4c1.1,0,2-.9,2-2v-28.92c2.55-5.1,8.39-6.95,12.4-4.87,2.97,1.54,4.74,5.13,4.42,8.97v24.81c0,1.1.9,2,2,2h8.42c1.1,0,2-.9,2-2v-28.92c.02-.48.26-10.61-7.22-15.42Z"/>
    <path class="cls-7" d="M300.6,72.08l-14.91-22.9,13.82-15.69c1.46-1.66.28-4.26-1.92-4.26h-6.36c-2.07,0-4.01.98-5.24,2.64l-12.61,17.06-.14-37.37c0-1.65-1.35-2.99-3-2.99h-6.04c-1.66,0-3,1.34-3,3v62.3c0,1.66,1.34,3,3,3h6.25c1.66,0,3.01-1.35,3-3.01l-.07-22,13.95,22.13c1.13,1.79,3.1,2.88,5.22,2.88h5.45c2.46,0,3.94-2.73,2.6-4.8Z"/>
    <rect class="cls-10" x=".5" y=".5" width="86.88" height="84.23" rx="11.65" ry="11.65"/>
    <g>
      <path class="cls-8" d="M51.99,47.34c-2.51-6.07-6.3-10.54-7.14-11.52-.34-.39-4.2-4.84-6.06-9.01-.2-.48-.46-1.34-.85-2.43-.47-1.29-.82-3.13-.42-5.39.14-.8.55-2.98,2.24-4.79,1.4-1.52,4.38-3.32,4.57-3.52.1-.1.17-.18.18-.3,0-.27-.38-.48-.53-.55-.89-.47-4.01.54-4.7.76-.03,0-.06.02-.08.03l-2.4,1.15s-.04.02-.06.02c-.14.05-.35.12-.62.16-1.44.19-2.24-.86-4.16-1.27-.45-.1-.81-.12-1.31-.14-2.99-.14-4.9,1.43-4.9,1.43-2.19,1.8-2.42,4.97-2.56,7.04-.04.58-.01.46-.06,1.16-.26,3.6-1.31,6.28-1.54,6.86-.78,1.93-1.82,4.44-4.6,6.95-5.51,5.46-8.22,13.03-8.22,13.03-2.43,6.79-2.33,11.25-2.01,13.71.33,2.42.87,2.82,1.2,2.89.28.06,1.04.03,3.35-3.88.74-1.25,3.03-6.09,3.32-6.77.07-.27.27-.39.38-.36.09.03.14.17.14.32,0,.55,0,.98-.02,1.11-.02.13-.04.49-.07,1.2-.02.34-.02.52,0,1.9,0,.58.01,1.1.01,1.5.01.8.03,1.19.04,1.49.01.23.06.93.2,1.83.05.35.17,1.02.38,1.86.16.64.34,1.23.52,1.76.13.45.3.96.54,1.5.22.51.47.95.7,1.33.27.5.54,1.01.84,1.52.16.28.32.55.48.81.04.06.07.12.08.19.02.1.04.24,0,.4-.05.21-.17.35-.24.42-.02.02-.05.04-.08.06-.18.12-.37.27-.57.44-.16.14-.31.28-.43.42-.02.02-.03.04-.05.06-.15.21-.31.43-.47.67-.2.32-.38.64-.54.94-.19.35-.26.65-.33.89,0,.01,0,.02-.01.04-.02.09-.05.19-.07.3-.1.44.24.86.69.86h27.04c.4,0,.72-.33.71-.73,0-.24-.05-.51-.13-.8-.11-.44-.29-.78-.45-1.02-.01-.02-.03-.04-.04-.06-.19-.24-.41-.5-.68-.78-.2-.19-.39-.36-.59-.51-.14-.13-.3-.26-.47-.39-.3-.22-.43-.21-.52-.36-.03-.05-.06-.11-.08-.19-.05-.2.01-.4.14-.56.37-.47.84-1.12,1.32-1.93.31-.51,1.62-2.81,2.25-6.29.23-1.28.53-4.71.53-4.89,0,.01,0,.02-.01.03.04-.82.07-1.67.07-2.57,0-.8-.03-1.61-.05-2.41,0-.12.01-.38.14-.45.16-.07.42.2.56.36.05.05.08.12.11.18,1.14,2.72,2.17,4.93,2.98,6.56,1.58,3.21,2.24,4.21,2.83,4.12.26-.03.8-.32,1.24-2.87,1.17-6.73-1.39-12.91-1.64-13.54ZM30.51,13.28c1.01.02,1.77.97,1.64,1.91-.1.76-.75,1.39-1.51,1.45-.92.09-1.83-.65-1.85-1.64-.01-.95.8-1.74,1.73-1.72ZM41.85,56.7c-.43,2.82-1.96,12.73-8.35,15.07-2.76,1.01-5.41.22-5.72.13-3.27-1-4.95-3.71-5.92-5.25-.55-.91-1.84-3.15-2.63-8.49-.23-1.63-1.05-7.78.33-15.98.16-.92.82-4.68,2.5-9.28,0,0,1.19-3.25,3.81-7.04.31-.44,1-1.41,2.24-2.16.61-.37,1.42-.87,2.5-.86,1.32.02,2.28.78,2.95,1.32.96.76,1.49,1.56,1.72,1.91,2.41,3.72,3.81,8.23,3.81,8.23.63,1.99,1.12,3.59,1.64,6.38,1.1,5.74,1.98,10.46,1.12,16.05Z"/>
      <path class="cls-8" d="M68.33,8.79h8.25c2.62,0,4.11,3.01,2.52,5.09l-19,24.87c-.52.68-.55,1.61-.08,2.32l20.14,30.46c1.39,2.11-.12,4.92-2.64,4.92h-8.5c-1.08,0-2.09-.55-2.67-1.47l-11.23-17.63-.25-.82c-.05-2.04-.33-4.63-1.18-7.52-1.45-4.91-3.92-8.42-5.64-10.48-.06-.07-.1-.15-.13-.23-.07-.23-.14-.58-.09-1.02.04-.38.18-.76.4-1.09l17.49-26c.59-.88,1.57-1.4,2.63-1.4Z"/>
    </g>
  </g>
</svg>